HIERARCHY
ROOT SpineBase
{
  OFFSET 0.000000 0.000000 0.000000
  CHANNELS 6 Xposition Yposition Zposition Zrotation Xrotation Yrotation
  JOINT SpineMid
  {
    OFFSET 0.000000 28.936504 0.000000
    CHANNELS 3 Zrotation Xrotation Yrotation
    JOINT SpineShoulder
    {
      OFFSET -0.023893 21.507196 -0.701783
      CHANNELS 3 Zrotation Xrotation Yrotation
      JOINT Neck
      {
        OFFSET -0.022001 7.121927 -0.539822
        CHANNELS 3 Zrotation Xrotation Yrotation
        JOINT Head
        {
          OFFSET -2.890373 12.949321 0.531762
          CHANNELS 3 Zrotation Xrotation Yrotation
          End Site
          {
            OFFSET 0 0 0
          }
        }
      }
      JOINT ShoulderLeft
      {
        OFFSET -13.906508 -3.170190 7.800383
        CHANNELS 3 Zrotation Xrotation Yrotation
        JOINT ElbowLeft
        {
          OFFSET -1.734814 -26.117861 1.869546
          CHANNELS 3 Zrotation Xrotation Yrotation
          JOINT WristLeft
          {
            OFFSET 0.343138 -21.240791 -2.355999
            CHANNELS 3 Zrotation Xrotation Yrotation
            JOINT HandLeft
            {
              OFFSET 0.125493 -5.922893 -1.376427
              CHANNELS 3 Zrotation Xrotation Yrotation
              JOINT HandTipLeft
              {
                OFFSET 0.561407 -6.043098 0.056676
                CHANNELS 3 Zrotation Xrotation Yrotation
                End Site
                {
                  OFFSET 0 0 0
                }
              }
              JOINT ThumbLeft
              {
                OFFSET -1.893609 -2.316868 -2.196974
                CHANNELS 3 Zrotation Xrotation Yrotation
                End Site
                {
                  OFFSET 0 0 0
                }
              }
            }
          }
        }
      }
      JOINT ShoulderRight
      {
        OFFSET 10.984283 -3.845039 -11.488986
        CHANNELS 3 Zrotation Xrotation Yrotation
        JOINT ElbowRight
        {
          OFFSET 5.106562 -23.546907 -2.726118
          CHANNELS 3 Zrotation Xrotation Yrotation
          JOINT WristRight
          {
            OFFSET -0.395116 -20.172653 -4.635331
            CHANNELS 3 Zrotation Xrotation Yrotation
            JOINT HandRight
            {
              OFFSET -1.835355 -5.758150 -1.039104
              CHANNELS 3 Zrotation Xrotation Yrotation
              JOINT HandTipRight
              {
                OFFSET 0.164184 -6.905053 0.306035
                CHANNELS 3 Zrotation Xrotation Yrotation
                End Site
                {
                  OFFSET 0 0 0
                }
              }
              JOINT ThumbRight
              {
                OFFSET 2.024087 -0.489171 -2.684694
                CHANNELS 3 Zrotation Xrotation Yrotation
                End Site
                {
                  OFFSET 0 0 0
                }
              }
            }
          }
        }
      }
    }
  }
  JOINT HipLeft
  {
    OFFSET -5.124237 0.608975 -0.029997
    CHANNELS 3 Zrotation Xrotation Yrotation
    JOINT KneeLeft
    {
      OFFSET 6.536150 -27.534266 6.926396
      CHANNELS 3 Zrotation Xrotation Yrotation
      JOINT AnkleLeft
      {
        OFFSET 7.303026 -31.478379 7.339350
        CHANNELS 3 Zrotation Xrotation Yrotation
        JOINT FootLeft
        {
          OFFSET -4.745922 -2.865288 -9.431822
          CHANNELS 3 Zrotation Xrotation Yrotation
          End Site
          {
            OFFSET 0 0 0
          }
        }
      }
    }
  }
  JOINT HipRight
  {
    OFFSET 4.898069 1.054739 -6.671880
    CHANNELS 3 Zrotation Xrotation Yrotation
    JOINT KneeRight
    {
      OFFSET 9.910066 -31.563003 6.323086
      CHANNELS 3 Zrotation Xrotation Yrotation
      JOINT AnkleRight
      {
        OFFSET 6.280494 -29.456995 3.973248
        CHANNELS 3 Zrotation Xrotation Yrotation
        JOINT FootRight
        {
          OFFSET -4.749731 -3.830972 -4.013071
          CHANNELS 3 Zrotation Xrotation Yrotation
          End Site
          {
            OFFSET 0 0 0
          }
        }
      }
    }
  }
}
MOTION
Frames: 14
Frame Time: 0.033333
18.749339 96.792275 314.403897 -6.835089 -15.962161 12.227529 0.325453 0.044014 -13.448795 0.269890 0.183046 -0.309987 -2.875357 11.805702 1.305011 0.000000 0.000000 0.000000 -67.335625 12.982751 14.327594 -11.133525 13.333602 28.351439 -7.877560 4.475841 13.730156 -21.050909 18.359799 -17.746774 0.000000 0.000000 0.000000 0.000000 0.000000 0.000000 29.678246 53.840823 -7.933776 5.124819 1.003768 -10.462462 32.413759 16.744682 -21.597229 -17.497959 1.559495 23.970627 0.000000 0.000000 0.000000 0.000000 0.000000 0.000000 -53.619383 30.096891 -3.392287 52.006064 -25.552936 2.884880 14.828354 19.822133 11.757216 0.000000 0.000000 0.000000 -16.109498 59.704419 13.108059 23.381305 -79.869338 -7.545795 16.165359 61.618888 -51.145550 0.000000 0.000000 0.000000
20.787571 92.155317 313.313925 -6.508738 -17.457934 11.748316 0.175559 -0.138574 -13.004377 0.271424 0.201240 -0.306283 -3.678629 12.956906 1.506751 0.000000 0.000000 0.000000 -66.689197 19.688835 19.427623 -9.592627 13.457438 26.307285 -3.015669 4.672762 12.483734 -24.132551 21.833931 -12.184165 0.000000 0.000000 0.000000 0.000000 0.000000 0.000000 28.290258 54.725423 -7.753391 4.500022 -0.226821 -9.973809 25.365828 18.612260 -22.424209 -17.338547 2.315012 21.481126 0.000000 0.000000 0.000000 0.000000 0.000000 0.000000 -62.148533 32.077872 1.930618 58.434674 -26.424028 4.153850 5.350972 25.796350 30.225707 0.000000 0.000000 0.000000 -14.049362 60.867164 12.787957 13.397054 -81.917242 -16.328434 4.771976 64.892615 -36.633751 0.000000 0.000000 0.000000
23.573681 87.406971 312.209313 -5.220556 -18.861613 13.536642 0.161287 -0.155248 -14.621014 0.300436 0.244796 -0.260982 -6.136626 13.131868 1.794033 0.000000 0.000000 0.000000 -65.244044 25.537442 22.868429 -3.778858 15.684975 24.391554 -3.708800 7.528263 11.483587 -23.961930 22.743640 -9.640435 0.000000 0.000000 0.000000 0.000000 0.000000 0.000000 24.309473 54.530281 -6.328660 5.735689 -0.850654 -9.216710 14.322404 17.193967 -20.089141 -14.234254 7.801865 19.678210 0.000000 0.000000 0.000000 0.000000 0.000000 0.000000 -73.089525 38.916962 12.893534 66.708792 -32.645479 7.741268 -17.334824 30.094342 61.197320 0.000000 0.000000 0.000000 -12.803654 63.374958 10.953848 1.770923 -82.438237 -27.491063 -6.418544 63.564981 -19.525760 0.000000 0.000000 0.000000
26.080689 82.562205 311.199106 -4.206100 -20.680618 15.623277 0.206850 -0.114639 -16.582216 0.319957 0.325838 -0.225883 -9.484059 13.843298 2.642789 0.000000 0.000000 0.000000 -61.016442 32.133894 25.229828 1.872247 16.709971 21.086526 -3.829776 8.963732 9.110327 -21.118154 23.145802 -5.216843 0.000000 0.000000 0.000000 0.000000 0.000000 0.000000 21.661498 54.343550 -5.732432 7.137242 -1.194071 -8.579449 9.147631 14.314420 -17.479637 -14.230264 11.866961 17.351668 0.000000 0.000000 0.000000 0.000000 0.000000 0.000000 -88.417573 47.490042 34.123254 77.590986 -44.376783 15.746992 -40.569997 27.015073 86.439007 0.000000 0.000000 0.000000 -7.701125 65.690426 6.140011 -5.531792 -81.881122 -33.574910 -3.768825 58.048374 -17.317165 0.000000 0.000000 0.000000
27.926520 78.136516 310.451743 -3.936854 -22.898594 16.145777 0.382151 0.077565 -17.143353 0.255461 0.275245 -0.212332 -12.857383 14.368263 3.711523 0.000000 0.000000 0.000000 -55.162927 40.072651 27.013264 8.200301 13.291757 16.277153 -2.139214 10.150083 6.663641 -22.488807 21.362014 -4.825961 0.000000 0.000000 0.000000 0.000000 0.000000 0.000000 17.532997 53.022454 -3.850193 10.435583 -0.502868 -7.708499 12.699105 11.088140 -15.114105 -18.754727 13.443334 14.389327 0.000000 0.000000 0.000000 0.000000 0.000000 0.000000 -110.849237 54.065545 72.380125 97.969067 -63.521705 38.033336 -54.907530 24.419870 96.542759 0.000000 0.000000 0.000000 -3.660116 67.041336 3.076809 -3.781762 -80.411506 -30.616914 3.224475 50.661639 -20.324506 0.000000 0.000000 0.000000
28.979232 73.787852 309.600637 -4.367371 -25.302573 16.314677 0.404308 0.187557 -17.510711 0.346298 0.431228 -0.245177 -16.889851 15.362059 5.562770 0.000000 0.000000 0.000000 -43.564340 45.473993 23.682256 11.954179 14.866629 12.993344 0.724374 5.757734 3.161748 -23.964651 22.956864 -1.528827 0.000000 0.000000 0.000000 0.000000 0.000000 0.000000 16.345505 51.688722 -3.676521 11.401056 -1.555786 -6.901164 15.071056 8.910672 -12.882063 -21.200264 16.089768 12.196246 0.000000 0.000000 0.000000 0.000000 0.000000 0.000000 -133.914325 59.027228 120.278735 176.067152 -77.309813 126.151490 -59.750234 17.292728 106.255217 0.000000 0.000000 0.000000 0.871825 68.351612 0.022622 -7.807718 -79.665696 -33.636031 6.222589 49.199899 -22.460613 0.000000 0.000000 0.000000
30.201480 69.601615 308.533977 -6.111049 -27.504476 13.883709 0.321310 0.285007 -15.629509 0.455810 0.526379 -0.334971 -15.560780 17.195661 5.956430 0.000000 0.000000 0.000000 -25.257389 48.991548 15.266967 14.323419 16.960074 8.573891 -1.489608 2.241866 0.490175 -15.466353 20.440324 1.480961 0.000000 0.000000 0.000000 0.000000 0.000000 0.000000 15.489245 49.167877 -3.167967 14.184019 -1.758039 -6.147778 16.523697 8.472825 -11.949178 -21.543390 16.874583 11.238822 0.000000 0.000000 0.000000 0.000000 0.000000 0.000000 -149.227543 59.288374 155.974282 -136.564694 -64.710932 -175.504716 -63.971414 17.585610 107.441669 0.000000 0.000000 0.000000 3.108223 70.526185 1.750662 -16.739032 -79.768437 -41.143903 7.350352 50.921090 -26.032044 0.000000 0.000000 0.000000
31.298071 65.878187 307.413629 -8.473458 -29.871872 11.427406 0.551430 0.454550 -14.042357 0.572926 0.718102 -0.430194 -14.859416 18.532067 6.468330 0.000000 0.000000 0.000000 -7.858416 50.090507 6.177185 16.172851 16.177902 4.385841 -3.337505 2.774171 -1.071186 -5.282306 11.233200 3.307294 0.000000 0.000000 0.000000 0.000000 0.000000 0.000000 15.933532 46.927825 -3.472234 16.141584 -4.142310 -5.217203 19.518901 13.206108 -15.095703 -19.128897 11.237329 12.629154 0.000000 0.000000 0.000000 0.000000 0.000000 0.000000 -158.569465 57.990302 179.669465 -127.963373 -54.135773 -157.976541 -66.589227 21.645548 104.480630 0.000000 0.000000 0.000000 7.970518 73.453417 1.657417 -29.860949 -79.917258 -52.616609 8.448758 50.204002 -26.861527 0.000000 0.000000 0.000000
32.129343 62.835846 306.236047 -12.036964 -32.234922 7.445785 0.620893 0.500686 -11.405336 0.906271 0.966948 -0.606785 -12.675772 20.599963 6.754223 0.000000 0.000000 0.000000 7.813494 48.332440 -1.947937 18.358200 16.435660 0.439951 -5.653401 5.579843 -2.584197 4.521176 4.744380 7.067836 0.000000 0.000000 0.000000 0.000000 0.000000 0.000000 19.738923 44.133392 -5.836174 13.498547 -6.484279 -4.217194 26.022636 16.017374 -18.226681 -15.366099 6.492576 14.417515 0.000000 0.000000 0.000000 0.000000 0.000000 0.000000 -157.675198 53.431809 -172.690004 -127.662890 -47.979216 -154.232969 -63.427586 21.096687 103.929443 0.000000 0.000000 0.000000 12.271566 77.361054 3.486632 -47.772549 -79.790665 -68.741916 9.839392 49.379026 -28.056695 0.000000 0.000000 0.000000
34.146948 60.351705 304.998134 -14.872984 -34.789404 6.049098 1.077254 0.686730 -11.371882 0.907414 1.151957 -0.677581 -10.575766 22.520978 6.679444 0.000000 0.000000 0.000000 17.805802 46.478444 -7.081833 20.902350 14.231600 -2.159447 -8.719681 3.925181 -3.273952 11.531082 6.268374 8.685115 0.000000 0.000000 0.000000 0.000000 0.000000 0.000000 20.739660 39.489353 -7.106038 11.588047 -4.052470 -3.643605 29.627991 14.486605 -17.704781 -6.866785 6.030245 15.516494 0.000000 0.000000 0.000000 0.000000 0.000000 0.000000 -158.228817 52.744775 -168.174924 -126.303378 -47.785650 -151.223797 -62.972513 20.898852 103.990303 0.000000 0.000000 0.000000 26.678864 80.211025 -6.838219 -57.386134 -79.164333 -77.126046 11.107526 48.362603 -28.890685 0.000000 0.000000 0.000000
37.178645 58.028801 303.459000 -16.547640 -36.857537 5.958429 1.428195 0.819644 -12.268504 0.867746 1.357726 -0.695095 -9.011046 24.213294 6.501938 0.000000 0.000000 0.000000 22.875493 44.473333 -9.625448 23.470245 11.870038 -3.776783 -14.359483 -4.174528 -2.497001 27.083172 7.706812 7.734004 0.000000 0.000000 0.000000 0.000000 0.000000 0.000000 21.393414 35.008896 -8.482156 8.110154 0.196298 -2.829628 22.079307 12.739972 -12.810450 14.431899 3.876450 16.318296 0.000000 0.000000 0.000000 0.000000 0.000000 0.000000 -154.123741 51.337331 -174.840899 -127.975153 -52.011973 -157.046176 -63.078067 20.847410 104.092760 0.000000 0.000000 0.000000 40.327134 81.879808 -18.846731 -60.713151 -79.260553 -80.532960 12.267126 47.353667 -29.592556 0.000000 0.000000 0.000000
40.189272 55.867950 301.849757 -17.630336 -38.128429 2.991169 1.357357 0.892476 -9.912191 0.780322 1.387276 -0.706797 -8.009457 24.902138 6.268136 0.000000 0.000000 0.000000 24.290316 43.097332 -10.063291 27.076758 10.613839 -4.854193 4.753559 -51.130816 13.647352 32.117544 38.258683 -21.600855 0.000000 0.000000 0.000000 0.000000 0.000000 0.000000 20.534664 29.982150 -8.938079 2.758345 6.026013 -0.753446 17.228918 10.601455 -9.097761 35.235381 -1.232782 17.510333 0.000000 0.000000 0.000000 0.000000 0.000000 0.000000 -153.071167 49.663263 -173.877763 -126.963992 -50.715931 -154.392691 -62.944151 20.799656 104.119086 0.000000 0.000000 0.000000 32.852321 85.242366 -9.989133 -66.591558 -79.377753 -86.582729 13.322999 46.538007 -30.370755 0.000000 0.000000 0.000000
43.154317 53.792777 299.885283 -16.606217 -38.062838 3.009803 1.024757 0.693042 -9.474114 0.658412 1.242329 -0.673974 -12.165820 21.990087 7.345135 0.000000 0.000000 0.000000 21.141914 41.322592 -8.132004 28.316007 7.515551 -4.463990 151.283271 -60.277352 -176.635292 103.320598 32.019697 -109.494933 0.000000 0.000000 0.000000 0.000000 0.000000 0.000000 18.751693 24.856766 -9.097786 -3.553730 10.875806 2.603179 6.421988 3.690097 -2.530302 58.831990 -5.450503 11.864579 0.000000 0.000000 0.000000 0.000000 0.000000 0.000000 -156.388605 50.144573 -168.759040 -125.416465 -48.419000 -149.862292 -62.755774 20.757470 104.120809 0.000000 0.000000 0.000000 11.227041 86.090635 10.269154 -67.777147 -80.106579 -88.787773 13.143260 46.476983 -29.950924 0.000000 0.000000 0.000000
46.673373 52.803196 298.681760 -14.944181 -39.064981 4.940978 0.740055 0.492579 -10.875724 0.553402 1.140255 -0.623694 -16.315402 21.826325 9.229492 0.000000 0.000000 0.000000 17.871445 40.979710 -6.666418 26.023792 3.193703 -3.274114 167.205155 -64.104070 -150.633680 105.664216 17.706780 -103.527962 0.000000 0.000000 0.000000 0.000000 0.000000 0.000000 17.629801 21.276034 -10.017266 -11.217419 14.158780 7.152032 4.503793 -1.816637 -0.224551 67.514328 -8.217527 6.088791 0.000000 0.000000 0.000000 0.000000 0.000000 0.000000 -157.538684 50.495131 -170.647558 -125.241978 -51.009551 -151.185873 -62.621078 20.722252 104.128886 0.000000 0.000000 0.000000 9.497759 86.169091 9.428389 -59.943265 -80.948274 -82.092815 13.009857 45.945567 -29.086193 0.000000 0.000000 0.000000
